<svg xmlns="http://www.w3.org/2000/svg"  viewBox="0 0 100 100" width="256px" height="256px" baseProfile="basic"><path d="M85.896,28.536c-0.047-0.09-0.107-0.172-0.179-0.243c-6.165-6.165-19.98-8.199-20.565-8.283	c-0.315-0.044-0.626,0.061-0.849,0.283c-1.452,1.451-1.957,3.319-2.133,4.52c-2.973-0.511-6.048-0.776-9.17-0.776	c-3.118,0-6.189,0.264-9.16,0.776c-0.176-1.201-2.586-0.695-4.038-2.146c-0.223-0.222-0.532-0.328-0.849-0.283	c-0.585,0.083-12.496-0.256-18.661,5.909c-0.071,0.071-0.132,0.153-0.179,0.243C20.003,28.748,9,50.008,9,72	c0,0.216,0.07,0.427,0.2,0.6c7.947,10.596,20.198,11.425,23.834,11.425c0.583,0,0.944-0.021,1.032-0.027	c0.291-0.019,0.559-0.165,0.733-0.397l4.138-5.517c4.436,1.226,9.199,1.88,14.079,1.88c4.87,0,9.625-0.653,14.057-1.878L71.21,83.6	c0.175,0.233,0.442,0.378,0.733,0.397c0.088,0.006,0.449,0.027,1.032,0.027c3.637,0,15.888-0.83,23.834-11.425	c0.13-0.173,0.2-0.384,0.2-0.6C97.01,50.008,86.007,28.748,85.896,28.536z" opacity=".35"/><path fill="#8b6abf" d="M81.075,25.687C76.201,21.16,65.58,18,62.02,18.323c-1.148,0.618-1.964,4.832-1.964,4.832	c-4.253-1.65-8.799-1.061-10.228-0.811c-1.43-0.249-5.976-0.838-10.228,0.811c0,0-0.816-4.214-1.964-4.832	C34.075,18,23.454,21.16,18.58,25.687C13.706,30.214,6.304,60.975,7.01,67.906c0.706,6.931,18.263,12.484,23.35,11.692l4.371-5.69	c0,0,8.424,1.396,14.63,1.532v0.013c0.151,0,0.312-0.005,0.466-0.007c0.155,0.002,0.315,0.007,0.466,0.007V75.44	c6.206-0.135,14.63-1.532,14.63-1.532l4.371,5.69c5.087,0.791,22.644-4.761,23.35-11.692C93.352,60.975,85.949,30.214,81.075,25.687	z"/><ellipse cx="62.5" cy="53.5" fill="#662bba" rx="7.5" ry="8.5"/><ellipse cx="37.5" cy="53.5" fill="#662bba" rx="7.5" ry="8.5"/><linearGradient id="7rSVINz-l7jpAlekF1Fh7a" x1="39.823" x2="53.726" y1="15.587" y2="83.365" gradientUnits="userSpaceOnUse"><stop offset=".004" stop-color="#ffe8c7"/><stop offset=".349" stop-color="#f9d4a0"/><stop offset="1" stop-color="#ebab4d"/></linearGradient><path fill="url(#7rSVINz-l7jpAlekF1Fh7a)" d="M62.5,44c-4.687,0-8.5,4.262-8.5,9.5s3.813,9.5,8.5,9.5s8.5-4.262,8.5-9.5S67.187,44,62.5,44z M62.5,61c-3.584,0-6.5-3.364-6.5-7.5s2.916-7.5,6.5-7.5s6.5,3.364,6.5,7.5S66.084,61,62.5,61z M37.5,44c-4.687,0-8.5,4.262-8.5,9.5	s3.813,9.5,8.5,9.5s8.5-4.262,8.5-9.5S42.187,44,37.5,44z M37.5,61c-3.584,0-6.5-3.364-6.5-7.5s2.916-7.5,6.5-7.5s6.5,3.364,6.5,7.5	S41.084,61,37.5,61z M82.896,25.536c-0.047-0.09-0.107-0.172-0.179-0.243c-6.165-6.165-19.98-8.199-20.565-8.283	c-0.315-0.044-0.626,0.061-0.849,0.283c-1.452,1.451-1.957,3.319-2.133,4.52c-2.973-0.511-6.048-0.776-9.17-0.776	c-3.118,0-6.189,0.264-9.16,0.776c-0.176-1.201-0.681-3.068-2.133-4.52c-0.223-0.222-0.532-0.328-0.849-0.283	c-0.585,0.083-14.4,2.118-20.565,8.283c-0.071,0.071-0.132,0.153-0.179,0.243C17.003,25.748,6,47.008,6,69	c0,0.216,0.07,0.427,0.2,0.6c7.947,10.596,20.198,11.425,23.834,11.425c0.583,0,0.944-0.021,1.032-0.027	c0.291-0.019,0.559-0.165,0.733-0.397l4.138-5.517c4.436,1.226,9.199,1.88,14.079,1.88c4.87,0,9.625-0.653,14.057-1.878L68.21,80.6	c0.175,0.233,0.442,0.378,0.733,0.397c0.088,0.006,0.449,0.027,1.032,0.027c3.637,0,15.888-0.83,23.834-11.425	c0.13-0.173,0.2-0.384,0.2-0.6C94.01,47.008,83.007,25.748,82.896,25.536z M69.521,79.016l-3.406-4.542	c5.136-1.666,9.767-4.126,13.527-7.269c0.424-0.354,0.479-0.985,0.126-1.409c-0.354-0.422-0.983-0.481-1.409-0.125	C71.295,71.576,60.964,74.963,50,74.963c-10.948,0-21.279-3.387-28.342-9.292c-0.426-0.356-1.055-0.297-1.409,0.125	c-0.354,0.424-0.298,1.055,0.126,1.409c3.758,3.142,8.386,5.601,13.521,7.267l-3.409,4.544c-2.485,0.038-14.751-0.313-22.486-10.352	C8.106,48.2,17.893,28.421,18.816,26.599c5.108-4.979,16.267-7.098,18.805-7.525c0.844,1.045,1.144,2.319,1.252,3.121	c-5.705,1.211-10.983,3.35-15.428,6.311c-0.459,0.306-0.584,0.927-0.277,1.387c0.192,0.29,0.51,0.446,0.833,0.446	c0.19,0,0.383-0.054,0.554-0.167c6.905-4.6,15.942-7.132,25.463-7.132c9.503,0,18.54,2.533,25.446,7.132	c0.46,0.306,1.081,0.182,1.387-0.278c0.307-0.459,0.182-1.081-0.277-1.387c-4.446-2.961-9.726-5.1-15.435-6.311	c0.108-0.802,0.409-2.075,1.252-3.12c2.538,0.427,13.696,2.546,18.805,7.525c0.924,1.822,10.71,21.602,10.815,42.065	C84.289,78.681,71.977,79.045,69.521,79.016z"/></svg>