<svg xmlns="http://www.w3.org/2000/svg" xmlns:xlink="http://www.w3.org/1999/xlink" viewBox="0,0,256,256" width="32px" height="32px" fill-rule="nonzero"><g fill="#3b3228" fill-rule="nonzero" stroke="none" stroke-width="1" stroke-linecap="butt" stroke-linejoin="miter" stroke-miterlimit="10" stroke-dasharray="" stroke-dashoffset="0" font-family="none" font-weight="none" font-size="none" text-anchor="none" style="mix-blend-mode: normal"><g transform="scale(8,8)"><path d="M16,3c-7.16786,0 -13,5.83214 -13,13c0,7.16786 5.83214,13 13,13c7.16786,0 13,-5.83214 13,-13c0,-7.16786 -5.83214,-13 -13,-13zM16,5c6.08698,0 11,4.91302 11,11c0,6.08698 -4.91302,11 -11,11c-6.08698,0 -11,-4.91302 -11,-11c0,-6.08698 4.91302,-11 11,-11zM17,8v7v2v4h1l0.4668,-0.93555c0.6932,0.57509 1.56915,0.93555 2.5332,0.93555c2.19733,0 4,-1.80267 4,-4v-2c0,-2.19733 -1.80267,-4 -4,-4c-0.73069,0 -1.40837,0.21365 -2,0.56055v-3.56055zM11,11c-2.19733,0 -4,1.80267 -4,4v2c0,2.19733 1.80267,4 4,4c0.73069,0 1.40837,-0.21365 2,-0.56055v3.56055h2v-13h-1l-0.4668,0.93555c-0.6932,-0.57508 -1.56915,-0.93555 -2.5332,-0.93555zM11,13c1.11667,0 2,0.88333 2,2v2c0,1.11667 -0.88333,2 -2,2c-1.11667,0 -2,-0.88333 -2,-2v-2c0,-1.11667 0.88333,-2 2,-2zM21,13c1.11667,0 2,0.88333 2,2v2c0,1.11667 -0.88333,2 -2,2c-1.11667,0 -2,-0.88333 -2,-2v-2c0,-1.11667 0.88333,-2 2,-2z"></path></g></g></svg>