<svg xmlns="http://www.w3.org/2000/svg" xmlns:xlink="http://www.w3.org/1999/xlink" viewBox="0,0,256,256" width="32px" height="32px" fill-rule="nonzero"><g fill="none" fill-rule="nonzero" stroke="none" stroke-width="1" stroke-linecap="butt" stroke-linejoin="miter" stroke-miterlimit="10" stroke-dasharray="" stroke-dashoffset="0" font-family="none" font-weight="none" font-size="none" text-anchor="none" style="mix-blend-mode: normal"><g transform="scale(8,8)"><path d="M28,10v12h-2v2h-2v2h-2v2h-12v-2h-2v-2h-2v-2h-2v-12h2v-2h2v-2h2v-2h12v2h2v2h2v2z" fill="#e68d53"></path><path d="M18,10h-2v4h-2v3h-2v3h-2v-2h-2v-2h-2v-2h-2v4h2v2h2v2h2v2h4v-2h3v-2h3v-2h4v-2h-6zM24,8h-6v2h6zM20,14h2v-2h-2zM24,10v6h2v-6z" fill="#ffffff"></path></g></g></svg>